<mxfile host="" modified="2020-06-30T02:16:47.298Z" agent="5.0 (X11; Linux x86_64) AppleWebKit/537.36 (KHTML, like Gecko) Code/1.46.1 Chrome/78.0.3904.130 Electron/7.3.1 Safari/537.36" etag="DH0jDTtFAiH02mEBvoMI" version="13.1.3">
    <diagram id="6hGFLwfOUW9BJ-s0fimq" name="Page-1">
        <mxGraphModel dx="2178" dy="2469" grid="1" gridSize="10" guides="1" tooltips="1" connect="1" arrows="1" fold="1" page="1" pageScale="1" pageWidth="827" pageHeight="1169" math="0" shadow="0">
            <root>
                <mxCell id="0"/>
                <mxCell id="1" parent="0"/>
                <mxCell id="5" value="&lt;span style=&quot;font-size: 14px&quot;&gt;Location&lt;/span&gt;" style="shape=document;whiteSpace=wrap;html=1;boundedLbl=1;dashed=0;flipH=1;strokeWidth=2;" vertex="1" parent="1">
                    <mxGeometry x="80" y="165" width="180" height="60" as="geometry"/>
                </mxCell>
                <mxCell id="6" value="&lt;span style=&quot;font-size: 14px&quot;&gt;Chassis&lt;/span&gt;" style="shape=document;whiteSpace=wrap;html=1;boundedLbl=1;dashed=0;flipH=1;strokeWidth=2;" vertex="1" parent="1">
                    <mxGeometry x="80" y="45" width="180" height="60" as="geometry"/>
                </mxCell>
                <mxCell id="9" value="&lt;span style=&quot;font-size: 14px&quot;&gt;VehicleStateProvider&lt;/span&gt;" style="html=1;dashed=0;whitespace=wrap;strokeWidth=2;strokeColor=#0000FF;" vertex="1" parent="1">
                    <mxGeometry x="360" y="115" width="140" height="40" as="geometry"/>
                </mxCell>
                <mxCell id="10" value="&lt;span style=&quot;font-size: 14px&quot;&gt;VehicleState&lt;/span&gt;" style="shape=parallelogram;perimeter=parallelogramPerimeter;whiteSpace=wrap;html=1;dashed=0;strokeWidth=2;" vertex="1" parent="1">
                    <mxGeometry x="610" y="110" width="160" height="50" as="geometry"/>
                </mxCell>
                <mxCell id="12" value="&lt;span style=&quot;font-size: 14px&quot;&gt;RoutingPath&lt;/span&gt;" style="shape=document;whiteSpace=wrap;html=1;boundedLbl=1;dashed=0;flipH=1;strokeWidth=2;" vertex="1" parent="1">
                    <mxGeometry x="80" y="285" width="180" height="60" as="geometry"/>
                </mxCell>
                <mxCell id="13" value="&lt;font style=&quot;font-size: 14px&quot;&gt;ReferenceLine生成&lt;/font&gt;" style="html=1;dashed=0;whitespace=wrap;strokeWidth=2;strokeColor=#0000FF;" vertex="1" parent="1">
                    <mxGeometry x="360" y="295" width="140" height="40" as="geometry"/>
                </mxCell>
                <mxCell id="14" value="&lt;span style=&quot;font-size: 14px&quot;&gt;ReferenceLine&lt;/span&gt;" style="shape=parallelogram;perimeter=parallelogramPerimeter;whiteSpace=wrap;html=1;dashed=0;strokeWidth=2;" vertex="1" parent="1">
                    <mxGeometry x="610" y="290" width="160" height="50" as="geometry"/>
                </mxCell>
                <mxCell id="18" value="" style="edgeStyle=elbowEdgeStyle;elbow=horizontal;endArrow=classic;html=1;exitX=1;exitY=0.5;exitDx=0;exitDy=0;dashed=1;strokeWidth=2;entryX=0;entryY=0.25;entryDx=0;entryDy=0;" edge="1" parent="1">
                    <mxGeometry width="50" height="50" relative="1" as="geometry">
                        <mxPoint x="260" y="75" as="sourcePoint"/>
                        <mxPoint x="360" y="125" as="targetPoint"/>
                        <Array as="points">
                            <mxPoint x="320" y="105"/>
                        </Array>
                    </mxGeometry>
                </mxCell>
                <mxCell id="19" value="" style="edgeStyle=elbowEdgeStyle;elbow=horizontal;endArrow=classic;html=1;exitX=1;exitY=0.5;exitDx=0;exitDy=0;dashed=1;strokeWidth=2;entryX=0;entryY=0.75;entryDx=0;entryDy=0;" edge="1" parent="1">
                    <mxGeometry width="50" height="50" relative="1" as="geometry">
                        <mxPoint x="260" y="195" as="sourcePoint"/>
                        <mxPoint x="360" y="145" as="targetPoint"/>
                        <Array as="points">
                            <mxPoint x="320" y="185"/>
                        </Array>
                    </mxGeometry>
                </mxCell>
                <mxCell id="20" value="" style="edgeStyle=elbowEdgeStyle;elbow=horizontal;endArrow=classic;html=1;exitX=1;exitY=0.5;exitDx=0;exitDy=0;dashed=1;strokeWidth=2;entryX=0;entryY=0.5;entryDx=0;entryDy=0;" edge="1" parent="1">
                    <mxGeometry width="50" height="50" relative="1" as="geometry">
                        <mxPoint x="500" y="134.5" as="sourcePoint"/>
                        <mxPoint x="626" y="134.5" as="targetPoint"/>
                        <Array as="points">
                            <mxPoint x="560" y="124.5"/>
                        </Array>
                    </mxGeometry>
                </mxCell>
                <mxCell id="21" value="" style="edgeStyle=elbowEdgeStyle;elbow=horizontal;endArrow=classic;html=1;exitX=-0.006;exitY=0.667;exitDx=0;exitDy=0;dashed=1;strokeWidth=2;entryX=0;entryY=0.75;entryDx=0;entryDy=0;exitPerimeter=0;" edge="1" parent="1" source="12" target="13">
                    <mxGeometry width="50" height="50" relative="1" as="geometry">
                        <mxPoint x="260" y="315" as="sourcePoint"/>
                        <mxPoint x="360" y="265" as="targetPoint"/>
                        <Array as="points">
                            <mxPoint x="310" y="325"/>
                            <mxPoint x="320" y="305"/>
                        </Array>
                    </mxGeometry>
                </mxCell>
                <mxCell id="22" value="" style="edgeStyle=elbowEdgeStyle;elbow=horizontal;endArrow=classic;html=1;exitX=1;exitY=0.5;exitDx=0;exitDy=0;dashed=1;strokeWidth=2;entryX=0;entryY=0.25;entryDx=0;entryDy=0;" edge="1" parent="1" target="13">
                    <mxGeometry width="50" height="50" relative="1" as="geometry">
                        <mxPoint x="260" y="195" as="sourcePoint"/>
                        <mxPoint x="360" y="245" as="targetPoint"/>
                        <Array as="points">
                            <mxPoint x="320" y="225"/>
                        </Array>
                    </mxGeometry>
                </mxCell>
                <mxCell id="23" value="" style="edgeStyle=elbowEdgeStyle;elbow=horizontal;endArrow=classic;html=1;exitX=1;exitY=0.5;exitDx=0;exitDy=0;dashed=1;strokeWidth=2;entryX=0;entryY=0.5;entryDx=0;entryDy=0;" edge="1" parent="1">
                    <mxGeometry width="50" height="50" relative="1" as="geometry">
                        <mxPoint x="500" y="314.65999999999997" as="sourcePoint"/>
                        <mxPoint x="626" y="314.65999999999997" as="targetPoint"/>
                        <Array as="points">
                            <mxPoint x="560" y="304.65999999999997"/>
                        </Array>
                    </mxGeometry>
                </mxCell>
                <mxCell id="24" value="&lt;font style=&quot;font-size: 14px&quot;&gt;PerceptionObstacle&lt;/font&gt;" style="shape=document;whiteSpace=wrap;html=1;boundedLbl=1;dashed=0;flipH=1;strokeWidth=2;" vertex="1" parent="1">
                    <mxGeometry x="80" y="405" width="180" height="60" as="geometry"/>
                </mxCell>
                <mxCell id="25" value="&lt;font style=&quot;font-size: 14px&quot;&gt;PredictionObstacle&lt;/font&gt;" style="shape=document;whiteSpace=wrap;html=1;boundedLbl=1;dashed=0;flipH=1;strokeWidth=2;" vertex="1" parent="1">
                    <mxGeometry x="80" y="525" width="180" height="60" as="geometry"/>
                </mxCell>
                <mxCell id="26" value="&lt;font style=&quot;font-size: 14px&quot;&gt;障碍物生成&lt;/font&gt;" style="html=1;dashed=0;whitespace=wrap;strokeWidth=2;strokeColor=#0000FF;" vertex="1" parent="1">
                    <mxGeometry x="360" y="475" width="140" height="40" as="geometry"/>
                </mxCell>
                <mxCell id="27" value="&lt;font style=&quot;font-size: 14px&quot;&gt;Obstacle&lt;/font&gt;" style="shape=parallelogram;perimeter=parallelogramPerimeter;whiteSpace=wrap;html=1;dashed=0;strokeWidth=2;" vertex="1" parent="1">
                    <mxGeometry x="610" y="470" width="160" height="50" as="geometry"/>
                </mxCell>
                <mxCell id="28" value="" style="edgeStyle=elbowEdgeStyle;elbow=horizontal;endArrow=classic;html=1;exitX=1;exitY=0.5;exitDx=0;exitDy=0;dashed=1;strokeWidth=2;entryX=0;entryY=0.75;entryDx=0;entryDy=0;" edge="1" parent="1" source="25" target="26">
                    <mxGeometry width="50" height="50" relative="1" as="geometry">
                        <mxPoint x="310" y="535" as="sourcePoint"/>
                        <mxPoint x="330" y="505" as="targetPoint"/>
                        <Array as="points">
                            <mxPoint x="320" y="545"/>
                        </Array>
                    </mxGeometry>
                </mxCell>
                <mxCell id="29" value="" style="edgeStyle=elbowEdgeStyle;elbow=horizontal;endArrow=classic;html=1;exitX=1;exitY=0.5;exitDx=0;exitDy=0;dashed=1;strokeWidth=2;entryX=0;entryY=0.25;entryDx=0;entryDy=0;" edge="1" parent="1" source="24" target="26">
                    <mxGeometry width="50" height="50" relative="1" as="geometry">
                        <mxPoint x="260" y="425" as="sourcePoint"/>
                        <mxPoint x="370" y="455" as="targetPoint"/>
                        <Array as="points">
                            <mxPoint x="320" y="465"/>
                        </Array>
                    </mxGeometry>
                </mxCell>
                <mxCell id="30" value="" style="edgeStyle=elbowEdgeStyle;elbow=horizontal;endArrow=classic;html=1;exitX=1;exitY=0.5;exitDx=0;exitDy=0;dashed=1;strokeWidth=2;entryX=0;entryY=0.5;entryDx=0;entryDy=0;" edge="1" parent="1" target="27">
                    <mxGeometry width="50" height="50" relative="1" as="geometry">
                        <mxPoint x="500" y="495" as="sourcePoint"/>
                        <mxPoint x="600" y="445" as="targetPoint"/>
                        <Array as="points">
                            <mxPoint x="560" y="485"/>
                        </Array>
                    </mxGeometry>
                </mxCell>
                <mxCell id="31" value="&lt;font style=&quot;font-size: 14px&quot;&gt;ReferenceLineInfo生成&lt;/font&gt;" style="html=1;dashed=0;whitespace=wrap;strokeWidth=2;strokeColor=#0000FF;" vertex="1" parent="1">
                    <mxGeometry x="880" y="200" width="180" height="40" as="geometry"/>
                </mxCell>
                <mxCell id="32" value="" style="edgeStyle=elbowEdgeStyle;elbow=horizontal;endArrow=classic;html=1;exitX=1;exitY=0.5;exitDx=0;exitDy=0;dashed=1;strokeWidth=2;entryX=0;entryY=0.25;entryDx=0;entryDy=0;" edge="1" parent="1" target="31">
                    <mxGeometry width="50" height="50" relative="1" as="geometry">
                        <mxPoint x="750" y="140" as="sourcePoint"/>
                        <mxPoint x="850" y="190" as="targetPoint"/>
                        <Array as="points">
                            <mxPoint x="810" y="170"/>
                        </Array>
                    </mxGeometry>
                </mxCell>
                <mxCell id="33" value="" style="edgeStyle=elbowEdgeStyle;elbow=horizontal;endArrow=classic;html=1;exitX=1;exitY=0.25;exitDx=0;exitDy=0;dashed=1;strokeWidth=2;entryX=0;entryY=0.75;entryDx=0;entryDy=0;" edge="1" parent="1" source="14" target="31">
                    <mxGeometry width="50" height="50" relative="1" as="geometry">
                        <mxPoint x="750" y="320" as="sourcePoint"/>
                        <mxPoint x="850" y="270" as="targetPoint"/>
                        <Array as="points">
                            <mxPoint x="810" y="280"/>
                            <mxPoint x="810" y="310"/>
                        </Array>
                    </mxGeometry>
                </mxCell>
                <mxCell id="34" value="&lt;span style=&quot;font-size: 14px&quot;&gt;ReferenceLineInfo&lt;/span&gt;" style="shape=parallelogram;perimeter=parallelogramPerimeter;whiteSpace=wrap;html=1;dashed=0;strokeWidth=2;" vertex="1" parent="1">
                    <mxGeometry x="1140" y="195" width="180" height="50" as="geometry"/>
                </mxCell>
                <mxCell id="35" value="" style="edgeStyle=elbowEdgeStyle;elbow=horizontal;endArrow=classic;html=1;exitX=1;exitY=0.5;exitDx=0;exitDy=0;dashed=1;strokeWidth=2;entryX=0;entryY=0.5;entryDx=0;entryDy=0;" edge="1" parent="1" target="34">
                    <mxGeometry width="50" height="50" relative="1" as="geometry">
                        <mxPoint x="1060" y="219.5" as="sourcePoint"/>
                        <mxPoint x="1160" y="220" as="targetPoint"/>
                        <Array as="points">
                            <mxPoint x="1120" y="209.5"/>
                        </Array>
                    </mxGeometry>
                </mxCell>
                <mxCell id="36" value="&lt;font style=&quot;font-size: 14px&quot;&gt;PredictionQuerier生成&lt;/font&gt;" style="html=1;dashed=0;whitespace=wrap;strokeWidth=2;strokeColor=#0000FF;" vertex="1" parent="1">
                    <mxGeometry x="880" y="475" width="180" height="40" as="geometry"/>
                </mxCell>
                <mxCell id="39" value="" style="edgeStyle=elbowEdgeStyle;elbow=horizontal;endArrow=classic;html=1;exitX=1;exitY=1;exitDx=0;exitDy=0;dashed=1;strokeWidth=2;entryX=0;entryY=0.25;entryDx=0;entryDy=0;" edge="1" parent="1" source="14" target="36">
                    <mxGeometry width="50" height="50" relative="1" as="geometry">
                        <mxPoint x="760" y="330" as="sourcePoint"/>
                        <mxPoint x="880" y="375" as="targetPoint"/>
                        <Array as="points">
                            <mxPoint x="820" y="320"/>
                        </Array>
                    </mxGeometry>
                </mxCell>
                <mxCell id="40" value="" style="edgeStyle=elbowEdgeStyle;elbow=horizontal;endArrow=classic;html=1;exitX=1;exitY=0.5;exitDx=0;exitDy=0;dashed=1;strokeWidth=2;" edge="1" parent="1" source="27">
                    <mxGeometry width="50" height="50" relative="1" as="geometry">
                        <mxPoint x="510" y="505" as="sourcePoint"/>
                        <mxPoint x="880" y="505" as="targetPoint"/>
                        <Array as="points">
                            <mxPoint x="810" y="505"/>
                        </Array>
                    </mxGeometry>
                </mxCell>
                <mxCell id="41" value="&lt;span style=&quot;font-size: 14px&quot;&gt;PredictionQuerier&lt;/span&gt;" style="shape=parallelogram;perimeter=parallelogramPerimeter;whiteSpace=wrap;html=1;dashed=0;strokeWidth=2;" vertex="1" parent="1">
                    <mxGeometry x="1320" y="470" width="180" height="50" as="geometry"/>
                </mxCell>
                <mxCell id="42" value="" style="edgeStyle=elbowEdgeStyle;elbow=horizontal;endArrow=classic;html=1;exitX=1;exitY=0.5;exitDx=0;exitDy=0;dashed=1;strokeWidth=2;entryX=0;entryY=0.5;entryDx=0;entryDy=0;jumpStyle=arc;jumpSize=21;" edge="1" parent="1" target="41">
                    <mxGeometry width="50" height="50" relative="1" as="geometry">
                        <mxPoint x="1060" y="494.5" as="sourcePoint"/>
                        <mxPoint x="1120" y="495" as="targetPoint"/>
                        <Array as="points">
                            <mxPoint x="1120" y="484.5"/>
                        </Array>
                    </mxGeometry>
                </mxCell>
                <mxCell id="43" value="&lt;font style=&quot;font-size: 14px&quot;&gt;PathTimeGraph生成&lt;/font&gt;" style="html=1;dashed=0;whitespace=wrap;strokeWidth=2;strokeColor=#0000FF;" vertex="1" parent="1">
                    <mxGeometry x="880" y="630" width="180" height="40" as="geometry"/>
                </mxCell>
                <mxCell id="44" value="" style="edgeStyle=elbowEdgeStyle;elbow=horizontal;endArrow=classic;html=1;exitX=1;exitY=0.5;exitDx=0;exitDy=0;dashed=1;strokeWidth=2;entryX=0;entryY=0.25;entryDx=0;entryDy=0;" edge="1" parent="1" source="27">
                    <mxGeometry width="50" height="50" relative="1" as="geometry">
                        <mxPoint x="743.3333333333335" y="489.9966666666668" as="sourcePoint"/>
                        <mxPoint x="880" y="643.33" as="targetPoint"/>
                        <Array as="points">
                            <mxPoint x="810" y="570"/>
                        </Array>
                    </mxGeometry>
                </mxCell>
                <mxCell id="45" value="" style="edgeStyle=elbowEdgeStyle;elbow=horizontal;endArrow=classic;html=1;exitX=0.444;exitY=1.02;exitDx=0;exitDy=0;dashed=1;strokeWidth=2;entryX=1;entryY=0.25;entryDx=0;entryDy=0;exitPerimeter=0;jumpStyle=arc;jumpSize=33;" edge="1" parent="1" source="34" target="43">
                    <mxGeometry width="50" height="50" relative="1" as="geometry">
                        <mxPoint x="1430.0011111111112" y="383.8888888888889" as="sourcePoint"/>
                        <mxPoint x="1548.8899999999999" y="310" as="targetPoint"/>
                        <Array as="points">
                            <mxPoint x="1220" y="430"/>
                            <mxPoint x="1150" y="650"/>
                            <mxPoint x="1360" y="490"/>
                            <mxPoint x="1340" y="600"/>
                            <mxPoint x="1360" y="460"/>
                            <mxPoint x="1478.8899999999999" y="390"/>
                        </Array>
                    </mxGeometry>
                </mxCell>
                <mxCell id="46" value="&lt;span style=&quot;font-size: 14px&quot;&gt;PathTimeGraph&lt;/span&gt;" style="shape=parallelogram;perimeter=parallelogramPerimeter;whiteSpace=wrap;html=1;dashed=0;strokeWidth=2;" vertex="1" parent="1">
                    <mxGeometry x="1320" y="670" width="180" height="50" as="geometry"/>
                </mxCell>
                <mxCell id="47" value="" style="edgeStyle=elbowEdgeStyle;elbow=horizontal;endArrow=classic;html=1;exitX=0.5;exitY=1;exitDx=0;exitDy=0;dashed=1;strokeWidth=2;entryX=0;entryY=0.5;entryDx=0;entryDy=0;" edge="1" parent="1" source="43" target="46">
                    <mxGeometry width="50" height="50" relative="1" as="geometry">
                        <mxPoint x="960" y="710" as="sourcePoint"/>
                        <mxPoint x="1020" y="710.5" as="targetPoint"/>
                        <Array as="points">
                            <mxPoint x="970" y="670"/>
                            <mxPoint x="1020" y="700"/>
                        </Array>
                    </mxGeometry>
                </mxCell>
                <mxCell id="48" value="&lt;font style=&quot;font-size: 14px&quot;&gt;Lattice采样&lt;/font&gt;" style="html=1;dashed=0;whitespace=wrap;strokeWidth=2;strokeColor=#0000FF;" vertex="1" parent="1">
                    <mxGeometry x="1560" y="565" width="140" height="40" as="geometry"/>
                </mxCell>
                <mxCell id="49" value="" style="edgeStyle=elbowEdgeStyle;elbow=horizontal;endArrow=classic;html=1;exitX=1;exitY=1;exitDx=0;exitDy=0;dashed=1;strokeWidth=2;" edge="1" parent="1">
                    <mxGeometry width="50" height="50" relative="1" as="geometry">
                        <mxPoint x="1480.0033333333336" y="499.9966666666668" as="sourcePoint"/>
                        <mxPoint x="1557" y="570" as="targetPoint"/>
                        <Array as="points">
                            <mxPoint x="1530" y="540"/>
                        </Array>
                    </mxGeometry>
                </mxCell>
                <mxCell id="50" value="" style="edgeStyle=elbowEdgeStyle;elbow=horizontal;endArrow=classic;html=1;exitX=1;exitY=1;exitDx=0;exitDy=0;dashed=1;strokeWidth=2;entryX=0;entryY=0.75;entryDx=0;entryDy=0;" edge="1" parent="1" target="48">
                    <mxGeometry width="50" height="50" relative="1" as="geometry">
                        <mxPoint x="1483.0033333333336" y="699.9966666666669" as="sourcePoint"/>
                        <mxPoint x="1560" y="780" as="targetPoint"/>
                        <Array as="points">
                            <mxPoint x="1533" y="740"/>
                        </Array>
                    </mxGeometry>
                </mxCell>
                <mxCell id="51" value="&lt;span style=&quot;font-size: 14px&quot;&gt;轨迹生成&lt;/span&gt;" style="html=1;dashed=0;whitespace=wrap;strokeWidth=2;strokeColor=#0000FF;" vertex="1" parent="1">
                    <mxGeometry x="1770" y="565" width="140" height="40" as="geometry"/>
                </mxCell>
                <mxCell id="52" value="" style="endArrow=classic;html=1;strokeWidth=2;exitX=1;exitY=0.5;exitDx=0;exitDy=0;entryX=0;entryY=0.5;entryDx=0;entryDy=0;strokeColor=#0000FF;" edge="1" parent="1" source="48" target="51">
                    <mxGeometry width="50" height="50" relative="1" as="geometry">
                        <mxPoint x="1710" y="610" as="sourcePoint"/>
                        <mxPoint x="1760" y="560" as="targetPoint"/>
                    </mxGeometry>
                </mxCell>
                <mxCell id="56" value="" style="edgeStyle=orthogonalEdgeStyle;rounded=0;jumpStyle=arc;jumpSize=33;orthogonalLoop=1;jettySize=auto;html=1;strokeColor=#0000FF;strokeWidth=2;" edge="1" parent="1" source="53" target="55">
                    <mxGeometry relative="1" as="geometry"/>
                </mxCell>
                <mxCell id="53" value="&lt;span style=&quot;font-size: 14px&quot;&gt;轨迹评价&lt;/span&gt;" style="html=1;dashed=0;whitespace=wrap;strokeWidth=2;strokeColor=#0000FF;" vertex="1" parent="1">
                    <mxGeometry x="1960" y="565" width="140" height="40" as="geometry"/>
                </mxCell>
                <mxCell id="58" value="" style="edgeStyle=orthogonalEdgeStyle;rounded=0;jumpStyle=arc;jumpSize=33;orthogonalLoop=1;jettySize=auto;html=1;strokeColor=#0000FF;strokeWidth=2;" edge="1" parent="1" source="55" target="57">
                    <mxGeometry relative="1" as="geometry"/>
                </mxCell>
                <mxCell id="55" value="&lt;span style=&quot;font-size: 14px&quot;&gt;碰撞检测&lt;/span&gt;" style="html=1;dashed=0;whitespace=wrap;strokeWidth=2;strokeColor=#0000FF;" vertex="1" parent="1">
                    <mxGeometry x="2180" y="565" width="140" height="40" as="geometry"/>
                </mxCell>
                <mxCell id="57" value="&lt;span style=&quot;font-size: 14px&quot;&gt;轨迹决策&lt;/span&gt;" style="html=1;dashed=0;whitespace=wrap;strokeWidth=2;strokeColor=#0000FF;" vertex="1" parent="1">
                    <mxGeometry x="2400" y="565" width="140" height="40" as="geometry"/>
                </mxCell>
                <mxCell id="54" value="" style="endArrow=classic;html=1;strokeWidth=2;entryX=0;entryY=0.5;entryDx=0;entryDy=0;strokeColor=#0000FF;" edge="1" parent="1" target="53">
                    <mxGeometry width="50" height="50" relative="1" as="geometry">
                        <mxPoint x="1910" y="585" as="sourcePoint"/>
                        <mxPoint x="1780" y="595" as="targetPoint"/>
                    </mxGeometry>
                </mxCell>
                <mxCell id="59" value="&lt;span style=&quot;font-size: 14px&quot;&gt;最优轨迹&lt;/span&gt;" style="shape=parallelogram;perimeter=parallelogramPerimeter;whiteSpace=wrap;html=1;dashed=0;strokeWidth=2;" vertex="1" parent="1">
                    <mxGeometry x="2620" y="560" width="180" height="50" as="geometry"/>
                </mxCell>
                <mxCell id="60" value="" style="edgeStyle=elbowEdgeStyle;elbow=horizontal;endArrow=classic;html=1;dashed=1;strokeWidth=2;entryX=0;entryY=0.5;entryDx=0;entryDy=0;jumpStyle=arc;jumpSize=21;exitX=1;exitY=0.5;exitDx=0;exitDy=0;" edge="1" parent="1" source="57" target="59">
                    <mxGeometry width="50" height="50" relative="1" as="geometry">
                        <mxPoint x="2570" y="520" as="sourcePoint"/>
                        <mxPoint x="2638" y="490.5" as="targetPoint"/>
                        <Array as="points">
                            <mxPoint x="2590" y="570"/>
                        </Array>
                    </mxGeometry>
                </mxCell>
                <mxCell id="61" value="" style="line;strokeWidth=2;direction=south;html=1;" vertex="1" parent="1">
                    <mxGeometry x="830" y="350" width="10" height="160" as="geometry"/>
                </mxCell>
                <mxCell id="62" value="" style="line;strokeWidth=2;direction=south;html=1;fillColor=#FF0000;strokeColor=#FF0000;fontColor=#ffffff;" vertex="1" parent="1">
                    <mxGeometry x="560" y="-110" width="10" height="1060" as="geometry"/>
                </mxCell>
            </root>
        </mxGraphModel>
    </diagram>
</mxfile>